<svg width="80" height="70" viewBox="0 0 80 70" fill="none" xmlns="http://www.w3.org/2000/svg">
  <path d="M1.14827 42.9359L78.8517 42.9361C79.2092 42.9361 79.5461 42.7696 79.7635 42.4858C79.9808 42.202 80.0535 41.8332 79.9601 41.4883C77.8462 33.6672 73.1397 26.6114 66.7079 21.6204C60.0699 16.4694 52.1037 13.7467 43.6706 13.7467H22.9874V10.7469C22.9874 10.1127 22.4733 9.59863 21.8392 9.59863H7.84237C7.2082 9.59863 6.6941 10.1127 6.6941 10.7469V13.7467H1.14827C0.514098 13.7467 0 14.2608 0 14.895V19.8022V28.3414V41.7878C0 42.4218 0.514098 42.9359 1.14827 42.9359ZM2.29655 22.2427L7.74182 24.9205V27.1931H2.29655V22.2427ZM42.2018 22.0269L65.5495 27.1929H42.2018V22.0269ZM43.6708 16.0432C48.3405 16.0432 52.8571 16.933 57.0554 18.6539H41.0535C40.4194 18.6539 39.9053 19.168 39.9053 19.8022V28.3414C39.9053 28.9756 40.4194 29.4897 41.0535 29.4897H71.3906C74.0114 32.8178 76.0344 36.6047 77.3176 40.6397L2.29655 40.6394V29.4895H8.89009C9.52427 29.4895 10.0384 28.9754 10.0384 28.3412V19.802C10.0384 19.1678 9.52427 18.6537 8.89009 18.6537H2.29655V16.0431H43.6708V16.0432Z" fill="url(#paint0_linear_176_1817)"/>
  <path d="M78.8517 44.4004H1.14827C0.514098 44.4004 0 44.9145 0 45.5487V49.2532C0 49.8873 0.514098 50.4014 1.14827 50.4014H75.1471C77.823 50.4014 80 48.2246 80 45.5487C80 44.9145 79.4859 44.4004 78.8517 44.4004Z" fill="url(#paint1_linear_176_1817)"/>
  <path d="M27.0304 38.0288H35.8543C36.4885 38.0288 37.0026 37.5147 37.0026 36.8805V19.8021C37.0026 19.1679 36.4885 18.6538 35.8543 18.6538H27.0304C26.3962 18.6538 25.8821 19.1679 25.8821 19.8021V36.8805C25.8821 37.5147 26.396 38.0288 27.0304 38.0288ZM28.1786 35.7322V21.9764L34.7061 25.1865V35.7322H28.1786Z" fill="url(#paint2_linear_176_1817)"/>
  <path d="M14.0892 29.4896H21.831C22.4652 29.4896 22.9793 28.9755 22.9793 28.3413V19.8021C22.9793 19.1679 22.4652 18.6538 21.831 18.6538H14.0892C13.455 18.6538 12.9409 19.1679 12.9409 19.8021V28.3413C12.9409 28.9756 13.455 29.4896 14.0892 29.4896ZM15.2375 27.193V22.2426L20.6827 24.9204V27.193H15.2375Z" fill="url(#paint3_linear_176_1817)"/>
  <defs>
    <linearGradient id="paint0_linear_176_1817" x1="68" y1="25.9999" x2="-2.71663e-07" y2="25.9999" gradientUnits="userSpaceOnUse">
      <stop stop-color="#EC7AB7"/>
      <stop offset="1" stop-color="#EC7A7A"/>
    </linearGradient>
    <linearGradient id="paint1_linear_176_1817" x1="80" y1="47" x2="-2.06427e-09" y2="47" gradientUnits="userSpaceOnUse">
      <stop stop-color="#EC7AB7"/>
      <stop offset="1" stop-color="#EC7A7A"/>
    </linearGradient>
    <linearGradient id="paint2_linear_176_1817" x1="31.4423" y1="18.6538" x2="31.4423" y2="38.0288" gradientUnits="userSpaceOnUse">
      <stop stop-color="#EC7AB7"/>
      <stop offset="1" stop-color="#EC7A7A"/>
    </linearGradient>
    <linearGradient id="paint3_linear_176_1817" x1="17.9601" y1="18.6538" x2="17.9601" y2="29.4896" gradientUnits="userSpaceOnUse">
      <stop stop-color="#EC7AB7"/>
      <stop offset="1" stop-color="#EC7A7A"/>
    </linearGradient>
  </defs>
</svg>